<svg xmlns="http://www.w3.org/2000/svg" fill="none" viewBox="0 0 20 20" height="20" width="20">
<path stroke-linejoin="round" stroke-linecap="round" stroke-width="1.4" stroke="#1F1F1F" d="M10.001 4L19 7.63317L9.99923 11L1 7.501L10.001 4Z"></path>
<path stroke-linejoin="round" stroke-linecap="round" stroke="#1F1F1F" d="M18 13C18 11.1773 18 10.3227 18 8.5L10 7V7.66675"></path>
<path stroke-linejoin="round" stroke-linecap="round" stroke-width="1.4" stroke="#1F1F1F" d="M16 9.5V13.1325C13 16 7 16 4 13.1325V9.5"></path>
<path fill="#1F1F1F" d="M17.3743 13.5606C17.4275 13.2365 17.6914 13 18 13C18.3086 13 18.5725 13.2365 18.6257 13.5606L18.985 15.7499C19.0371 16.0675 18.9517 16.3932 18.7526 16.6359C18.3542 17.1214 17.6458 17.1214 17.2474 16.6359C17.0483 16.3932 16.9629 16.0675 17.015 15.7499L17.3743 13.5606Z"></path>
</svg>
