<svg xmlns="http://www.w3.org/2000/svg" fill="none" viewBox="0 0 20 20" height="20" width="20">
<path stroke-linecap="round" stroke-width="1.41667" stroke="#1F1F1F" d="M18.3337 18.3333H1.66699M1.66699 9.16667L8.43866 3.75C8.88193 3.39541 9.43268 3.20223 10.0003 3.20223C10.568 3.20223 11.1187 3.39541 11.562 3.75L18.3337 9.16667M12.917 4.58333V2.91667C12.917 2.80616 12.9609 2.70018 13.039 2.62204C13.1172 2.5439 13.2232 2.5 13.3337 2.5H15.417C15.5275 2.5 15.6335 2.5439 15.7116 2.62204C15.7898 2.70018 15.8337 2.80616 15.8337 2.91667V7.08333M3.33366 18.3333V7.91667M16.667 18.3333V7.91667"></path>
<path fill="#1F1F1F" d="M12.5 18.3333V14.1667C12.5 12.9883 12.5 12.3992 12.1333 12.0333C11.7683 11.6667 11.1792 11.6667 10 11.6667C8.82083 11.6667 8.2325 11.6667 7.86667 12.0333C7.5 12.3983 7.5 12.9875 7.5 14.1667V18.3333M11.6667 7.91667C11.6667 8.35869 11.4911 8.78262 11.1785 9.09518C10.866 9.40774 10.442 9.58333 10 9.58333C9.55797 9.58333 9.13405 9.40774 8.82149 9.09518C8.50893 8.78262 8.33333 8.35869 8.33333 7.91667C8.33333 7.47464 8.50893 7.05072 8.82149 6.73816C9.13405 6.4256 9.55797 6.25 10 6.25C10.442 6.25 10.866 6.4256 11.1785 6.73816C11.4911 7.05072 11.6667 7.47464 11.6667 7.91667Z"></path>
<path stroke-width="1.41667" stroke="#1F1F1F" d="M12.5 18.3333V14.1667C12.5 12.9883 12.5 12.3992 12.1333 12.0333C11.7683 11.6667 11.1792 11.6667 10 11.6667C8.82083 11.6667 8.2325 11.6667 7.86667 12.0333C7.5 12.3983 7.5 12.9875 7.5 14.1667V18.3333M11.6667 7.91667C11.6667 8.35869 11.4911 8.78262 11.1785 9.09518C10.866 9.40774 10.442 9.58333 10 9.58333C9.55797 9.58333 9.13405 9.40774 8.82149 9.09518C8.50893 8.78262 8.33333 8.35869 8.33333 7.91667C8.33333 7.47464 8.50893 7.05072 8.82149 6.73816C9.13405 6.4256 9.55797 6.25 10 6.25C10.442 6.25 10.866 6.4256 11.1785 6.73816C11.4911 7.05072 11.6667 7.47464 11.6667 7.91667Z"></path>
</svg>
