<svg xmlns="http://www.w3.org/2000/svg" fill="none" viewBox="0 0 20 20" height="20" width="20">
<path stroke-linejoin="round" stroke-linecap="round" stroke-width="1.41667" stroke="#1F1F1F" d="M14.875 7.375V14.875M14.875 14.875V17.5H5.125V14.875M14.875 14.875H17.5V7.375C17.5 6.25 16.75 4.9375 15.625 4C14.5 3.0625 12.25 2.5 12.25 2.5H7.75C7.75 2.5 5.5 3.0625 4.375 4C3.25 4.9375 2.5 6.25 2.5 7.375V14.875H5.125M5.125 14.875V7.375"></path>
<path fill="#1F1F1F" d="M12.5 2.5C12.5 3.88071 11.3807 5 10 5C8.61929 5 7.5 3.88071 7.5 2.5"></path>
<path stroke-linejoin="round" stroke-linecap="round" stroke-width="1.41667" stroke="#1F1F1F" d="M12.5 2.5C12.5 3.88071 11.3807 5 10 5C8.61929 5 7.5 3.88071 7.5 2.5"></path>
</svg>
