<svg xmlns="http://www.w3.org/2000/svg" fill="none" viewBox="0 0 20 20" height="20" width="20">
<path fill="#1F1F1F" d="M9.16637 1.6665C10.7772 1.6665 12.083 2.97232 12.083 4.58314C12.083 6.14029 10.8628 7.41244 9.32641 7.49549L9.16637 7.49983C7.55555 7.49983 6.24969 6.194 6.24969 4.58314C6.24969 3.02604 7.46992 1.75385 9.00633 1.6708L9.16637 1.6665ZM3.33301 16.6665H10.6686C10.3705 16.1514 10.1673 15.5868 10.0688 14.9998H4.99969V13.6665L5.00402 13.5047C5.08437 12.0061 6.27414 10.8331 7.70801 10.8331H10.6247L10.7773 10.8376C10.9261 10.8463 11.0719 10.8676 11.2136 10.9006C11.6349 10.4123 12.1464 10.0099 12.7201 9.71521C12.0978 9.36537 11.3838 9.1665 10.6247 9.1665H7.70801L7.52769 9.17025C5.19508 9.26752 3.33301 11.2433 3.33301 13.6665V16.6665ZM12.5506 17.5374L14.9997 16.0415L17.4488 17.5374L16.7829 14.7459L18.9624 12.8789L16.1018 12.6496L14.9997 9.99982L13.8976 12.6496L11.037 12.8789L13.2164 14.7459L12.5506 17.5374Z" clip-rule="evenodd" fill-rule="evenodd"></path>
</svg>
