<svg width="24" height="24" viewBox="0 0 24 24" fill="none" xmlns="http://www.w3.org/2000/svg">
<path d="M6.343 18.8492L19.0709 6.12127C19.2585 5.93374 19.3638 5.67938 19.3638 5.41417C19.3638 5.14895 19.2585 4.8946 19.0709 4.70706C18.8834 4.51952 18.629 4.41417 18.3638 4.41417C18.0986 4.41417 17.8442 4.51952 17.6567 4.70706L4.92879 17.435C4.74125 17.6225 4.63589 17.8769 4.63589 18.1421C4.63589 18.4073 4.74125 18.6617 4.92879 18.8492C5.11632 19.0367 5.37068 19.1421 5.63589 19.1421C5.90111 19.1421 6.15546 19.0367 6.343 18.8492Z" fill="#0B2A4A"/>
<path d="M4.92864 6.12132L17.6566 18.8492C17.8441 19.0368 18.0984 19.1421 18.3637 19.1421C18.6289 19.1421 18.8832 19.0368 19.0708 18.8492C19.2583 18.6617 19.3637 18.4074 19.3637 18.1421C19.3637 17.8769 19.2583 17.6226 19.0708 17.435L6.34285 4.70711C6.15531 4.51957 5.90096 4.41421 5.63574 4.41421C5.37053 4.41421 5.11617 4.51957 4.92864 4.70711C4.7411 4.89464 4.63574 5.149 4.63574 5.41421C4.63574 5.67943 4.7411 5.93378 4.92864 6.12132Z" fill="#0B2A4A"/>
</svg>
