<svg xmlns="http://www.w3.org/2000/svg" fill="none" viewBox="0 0 20 20" height="20" width="20">
<path stroke="#1F1F1F" fill="#1F1F1F" d="M11.6279 14.5C12.2194 14.5 12.5575 14.7958 12.9482 15.2158C13.1313 15.4126 13.3596 15.675 13.6113 15.8711C13.8823 16.0821 14.22 16.251 14.6523 16.251C14.8813 16.2509 15.0852 16.2227 15.2676 16.1797C15.1804 16.371 15.0687 16.5631 14.9209 16.7373C14.5759 17.1439 14.0098 17.5 13.0234 17.5C12.017 17.5 11.369 17.1681 10.9766 16.8574C10.7773 16.6997 10.6389 16.5437 10.5527 16.4307C10.5312 16.4024 10.515 16.3754 10.5 16.3535V15.1328C10.5028 15.1285 10.5057 15.1238 10.5088 15.1191C10.5547 15.0496 10.6256 14.955 10.7236 14.8613C10.9163 14.6774 11.2054 14.5001 11.6279 14.5Z"></path>
<path stroke="#1F1F1F" fill="#1F1F1F" d="M8.37207 14.5C8.79461 14.5001 9.08369 14.6774 9.27637 14.8613C9.37441 14.955 9.44533 15.0496 9.49121 15.1191C9.49426 15.1238 9.4972 15.1285 9.5 15.1328V16.3643C9.48593 16.3862 9.47009 16.4136 9.44922 16.4424C9.36931 16.5526 9.23954 16.7061 9.04688 16.8613C8.66776 17.1666 8.02137 17.5 6.97656 17.5C5.99024 17.5 5.42409 17.1439 5.0791 16.7373C4.93124 16.563 4.81862 16.3711 4.73145 16.1797C4.91402 16.2228 5.11834 16.2509 5.34766 16.251C5.78003 16.251 6.11771 16.0821 6.38867 15.8711C6.64042 15.675 6.86869 15.4126 7.05176 15.2158C7.44248 14.7958 7.78062 14.5 8.37207 14.5Z"></path>
<path stroke-linejoin="round" stroke-linecap="round" stroke-width="1.4" stroke="#1F1F1F" d="M5 11H15V12.1771C15 12.6314 14.742 13 14.424 13H5.576C5.258 13 5 12.6314 5 12.1771V11Z"></path>
<path stroke-linejoin="round" stroke-linecap="round" stroke-width="1.4" stroke="#1F1F1F" d="M15 11L16.8889 4.88867L13.5556 7.33312L10 2.88867"></path>
<path stroke-linejoin="round" stroke-linecap="round" stroke-width="1.4" stroke="#1F1F1F" d="M5 11L3.11133 4.88867L6.44466 7.33312L10.0002 2.88867"></path>
<path stroke-width="0.6" stroke="#1F1F1F" fill="#1F1F1F" d="M10 1.7002C10.6565 1.7002 11.1893 2.23217 11.1895 2.88867C11.1895 3.54528 10.6566 4.07812 10 4.07812C9.34349 4.07801 8.81152 3.5452 8.81152 2.88867C8.81164 2.23224 9.34357 1.70031 10 1.7002Z"></path>
<path stroke-width="0.6" stroke="#1F1F1F" fill="#1F1F1F" d="M17.1108 3.47754C17.7674 3.47754 18.3002 4.00951 18.3003 4.66602C18.3003 5.32262 17.7674 5.85547 17.1108 5.85547C16.4543 5.85535 15.9224 5.32255 15.9224 4.66602C15.9225 4.00958 16.4544 3.47766 17.1108 3.47754Z"></path>
<path stroke-width="0.6" stroke="#1F1F1F" fill="#1F1F1F" d="M2.88867 3.47754C3.5452 3.47754 4.07801 4.00951 4.07812 4.66602C4.07812 5.32262 3.54528 5.85547 2.88867 5.85547C2.23217 5.85535 1.7002 5.32255 1.7002 4.66602C1.70031 4.00958 2.23224 3.47766 2.88867 3.47754Z"></path>
</svg>
