<svg xmlns="http://www.w3.org/2000/svg" fill="none" viewBox="0 0 20 20" height="20" width="20">
<path fill="#1F1F1F" d="M5.38281 10.7344C6.45901 10.7344 7.37502 11.1125 8.13086 11.8682C8.88699 12.6241 9.26562 13.5407 9.26562 14.6172C9.26559 15.6935 8.88691 16.6093 8.13086 17.3652C7.37497 18.1211 6.45914 18.4999 5.38281 18.5C4.30654 18.5 3.38992 18.1212 2.63379 17.3652C1.87805 16.6094 1.50003 15.6934 1.5 14.6172C1.5 13.5407 1.87783 12.6241 2.63379 11.8682C3.38991 11.1123 4.30657 10.7344 5.38281 10.7344ZM17.1846 10.9482C17.3945 10.9668 17.5736 11.0503 17.7217 11.1982C17.8907 11.3674 17.9756 11.577 17.9756 11.8271V17.4072L17.9717 17.499C17.9532 17.7091 17.8696 17.8881 17.7217 18.0361C17.5736 18.1841 17.3945 18.2676 17.1846 18.2861L17.0928 18.29H11.5127L11.4209 18.2861C11.2409 18.2703 11.0837 18.2066 10.9492 18.0957L10.8838 18.0361C10.7358 17.8881 10.6523 17.7091 10.6338 17.499L10.6299 17.4072V11.8271C10.6299 11.5769 10.7146 11.3674 10.8838 11.1982C11.0529 11.0291 11.2625 10.9444 11.5127 10.9443H17.0928L17.1846 10.9482ZM12.0303 16.8896H16.5752V12.3447H12.0303V16.8896ZM5.38281 1.5C5.53364 1.5 5.67084 1.53717 5.79395 1.61133C5.91719 1.68571 6.02223 1.80555 6.1084 1.9707L8.95117 7.49414C9.02787 7.64721 9.06236 7.80104 9.05469 7.9541L9.04297 8.06738C9.02536 8.17914 8.98958 8.28647 8.93652 8.38965C8.8675 8.52639 8.77072 8.63721 8.64648 8.7207C8.55347 8.7832 8.45083 8.82228 8.33887 8.83789L8.22363 8.8457H2.54199L2.42676 8.83789C2.35198 8.82747 2.28121 8.80671 2.21484 8.77539L2.11816 8.7207C1.99414 8.63721 1.8981 8.52637 1.8291 8.38965C1.77605 8.28647 1.74027 8.17914 1.72266 8.06738L1.71094 7.9541C1.70327 7.80105 1.73777 7.64719 1.81445 7.49414L4.65723 1.9707C4.74338 1.80558 4.84847 1.68571 4.97168 1.61133C5.09501 1.53722 5.2321 1.50005 5.38281 1.5ZM16.3047 1.5C16.9299 1.5 17.4519 1.7261 17.8711 2.17773C18.2901 2.62941 18.5 3.18323 18.5 3.83887C18.4999 4.50559 18.2862 5.1193 17.8584 5.67969C17.4304 6.24018 16.7553 6.92617 15.834 7.73828L14.835 8.62988C14.6848 8.77372 14.5073 8.84563 14.3027 8.8457C14.0981 8.8457 13.9204 8.77374 13.7705 8.62988L12.7715 7.73828C11.8502 6.92617 11.1751 6.23659 10.7471 5.66992C10.3192 5.10317 10.1055 4.48347 10.1055 3.81055C10.1055 3.15367 10.3144 2.60466 10.7324 2.16309C11.1504 1.72133 11.6762 1.5 12.3096 1.5C12.697 1.50006 13.0594 1.59883 13.3965 1.7959C13.7336 1.99301 14.0358 2.27644 14.3027 2.64648C14.5696 2.28262 14.8748 2.00097 15.2178 1.80078C15.5607 1.60057 15.923 1.50001 16.3047 1.5ZM3.41406 7.44531H7.35156L5.38281 3.62012L3.41406 7.44531Z"></path>
</svg>
