<svg xmlns="http://www.w3.org/2000/svg" fill="none" viewBox="0 0 20 20" height="20" width="20">
<path stroke-linecap="round" stroke-width="1.66667" stroke="#1F1F1F" d="M4.16724 6.6665H15.8339"></path>
<path stroke-width="1.66667" stroke="#1F1F1F" d="M5.89764 7.55942C5.88946 7.44525 5.90488 7.33063 5.94295 7.22268C5.98101 7.11474 6.04091 7.0158 6.1189 6.93202C6.19689 6.84824 6.2913 6.78143 6.39625 6.73575C6.5012 6.69007 6.61443 6.6665 6.72889 6.6665H13.2722C13.3866 6.6665 13.4998 6.69006 13.6048 6.73572C13.7097 6.78137 13.8041 6.84815 13.8821 6.93188C13.96 7.01561 14.0199 7.1145 14.058 7.2224C14.0961 7.33029 14.1116 7.44487 14.1035 7.559L13.3893 17.559C13.3743 17.7692 13.2803 17.966 13.126 18.1097C12.9718 18.2533 12.7688 18.3332 12.5581 18.3332H7.44306C7.23228 18.3332 7.02934 18.2533 6.87509 18.1097C6.72085 17.966 6.62677 17.7692 6.61181 17.559L5.89764 7.55942Z"></path>
<path stroke-linecap="round" stroke-width="1.66667" stroke="#1F1F1F" d="M10 4.1665V2.49984C10 2.27882 10.0878 2.06686 10.2441 1.91058C10.4004 1.7543 10.6123 1.6665 10.8333 1.6665H12.0833"></path>
<path stroke-width="1.66667" stroke="#1F1F1F" fill="#1F1F1F" d="M6.1347 4.86275C6.16713 4.66825 6.2675 4.49154 6.41794 4.36406C6.56839 4.23658 6.75917 4.16658 6.95636 4.1665H13.0447C13.242 4.16648 13.4328 4.23644 13.5834 4.36393C13.7339 4.49142 13.8343 4.66818 13.8668 4.86275L14.1672 6.6665H5.83386L6.1347 4.86275Z"></path>
</svg>
