<svg width="20" height="20" viewBox="0 0 20 20" fill="none" xmlns="http://www.w3.org/2000/svg">
<path d="M10 3C7.84588 3.00248 5.78069 3.8593 4.2575 5.3825C2.7343 6.90569 1.87748 8.97088 1.875 11.125V15.5C1.875 15.9973 2.07254 16.4742 2.42417 16.8258C2.77581 17.1775 3.25272 17.375 3.75 17.375C4.14832 17.3744 4.53618 17.2475 4.85781 17.0125C5.80703 16.3227 7.46875 15.5 10 15.5C12.5312 15.5 14.193 16.3219 15.1414 17.0117C15.4208 17.2166 15.7515 17.34 16.0968 17.3683C16.442 17.3966 16.7884 17.3287 17.0974 17.1721C17.4065 17.0155 17.6661 16.7764 17.8475 16.4812C18.0289 16.1861 18.1249 15.8464 18.125 15.5V11.125C18.1225 8.97088 17.2657 6.90569 15.7425 5.3825C14.2193 3.8593 12.1541 3.00248 10 3ZM16.875 11.125V11.818C15.8781 11.2011 14.8021 10.7223 13.6766 10.3945C13.4347 8.23945 12.6596 6.17863 11.4211 4.39844C12.9627 4.7262 14.3452 5.57287 15.3378 6.79708C16.3304 8.02129 16.873 9.54895 16.875 11.125ZM8.57891 4.39844C7.34032 6.17885 6.56512 8.23996 6.32344 10.3953C5.19786 10.7231 4.12191 11.2019 3.125 11.8188V11.125C3.12702 9.54895 3.66962 8.02129 4.66222 6.79708C5.65481 5.57287 7.03731 4.7262 8.57891 4.39844ZM16.5359 16.0555C16.432 16.1091 16.3151 16.1324 16.1985 16.1229C16.082 16.1134 15.9704 16.0713 15.8766 16.0016C14.7781 15.2031 12.8672 14.25 10 14.25C7.13281 14.25 5.22187 15.2031 4.12344 16.0016C4.02958 16.0713 3.91803 16.1134 3.80147 16.1229C3.6849 16.1324 3.56801 16.1091 3.46406 16.0555C3.36065 16.0046 3.27385 15.9254 3.21381 15.827C3.15376 15.7286 3.12296 15.6152 3.125 15.5V13.318C5.13375 11.8917 7.53638 11.1254 10 11.1254C12.4636 11.1254 14.8663 11.8917 16.875 13.318V15.5C16.877 15.6152 16.8462 15.7286 16.7862 15.827C16.7262 15.9254 16.6393 16.0046 16.5359 16.0555Z" fill="#1F1F1F" stroke="#1F1F1F" stroke-width="0.166667"/>
</svg>
