<svg viewBox="0 0 940.7 111.68" xmlns="http://www.w3.org/2000/svg" data-name="Layer 2" id="Layer_2">
  <defs>
    <style>
      .cls-1 {
        fill: #f06724;
        stroke-width: 0px;
      }
    </style>
  </defs>
  <g data-name="Layer 1" id="Layer_1-2">
    <g>
      <g>
        <path d="M166.45,12.4c8.13,8.14,12.2,19.49,12.2,34.07v63.46h-27.33v-59.75c0-8.46-2.15-14.94-6.44-19.43s-10.15-6.74-17.57-6.74-13.31,2.25-17.67,6.74c-4.36,4.49-6.54,10.97-6.54,19.43v59.75h-27.34v-59.75c0-8.46-2.15-14.94-6.44-19.43s-10.15-6.74-17.57-6.74-13.51,2.25-17.87,6.74c-4.36,4.49-6.54,10.97-6.54,19.43v59.75H0V1.76h27.34v13.08c3.51-4.55,8.04-8.13,13.57-10.74C46.44,1.5,52.52.2,59.16.2c8.46,0,16.01,1.79,22.65,5.37,6.64,3.58,11.78,8.69,15.42,15.33,3.51-6.25,8.62-11.26,15.33-15.03,6.7-3.77,13.96-5.66,21.77-5.66,13.28,0,23.98,4.07,32.12,12.2Z" class="cls-1"></path>
        <path d="M200.23,26.36c4.36-8.46,10.28-14.97,17.77-19.52,7.48-4.55,15.85-6.83,25.09-6.83,8.07,0,15.13,1.63,21.18,4.88,6.05,3.26,10.9,7.36,14.55,12.3V1.76h27.53v108.17h-27.53v-15.82c-3.51,5.08-8.37,9.27-14.55,12.59-6.18,3.32-13.31,4.98-21.38,4.98-9.11,0-17.41-2.34-24.89-7.03-7.49-4.69-13.41-11.29-17.77-19.82-4.36-8.52-6.54-18.32-6.54-29.38s2.18-20.63,6.54-29.09ZM274.91,38.76c-2.61-4.75-6.12-8.4-10.54-10.93-4.43-2.54-9.18-3.81-14.25-3.81s-9.76,1.24-14.06,3.71c-4.3,2.47-7.78,6.09-10.45,10.84-2.67,4.75-4,10.38-4,16.89s1.33,12.2,4,17.08c2.67,4.88,6.18,8.63,10.54,11.23,4.36,2.61,9.01,3.9,13.96,3.9s9.83-1.27,14.25-3.81c4.42-2.54,7.94-6.18,10.54-10.93,2.6-4.75,3.9-10.45,3.9-17.08s-1.3-12.33-3.9-17.08Z" class="cls-1"></path>
        <path d="M328.99,26.46c4.55-8.4,10.87-14.9,18.94-19.53,8.07-4.62,17.31-6.93,27.73-6.93,13.4,0,24.5,3.35,33.29,10.06,8.79,6.71,14.68,16.11,17.67,28.21h-29.48c-1.56-4.69-4.2-8.36-7.91-11.03-3.71-2.67-8.3-4-13.76-4-7.81,0-13.99,2.83-18.55,8.49-4.56,5.66-6.83,13.7-6.83,24.11s2.28,18.26,6.83,23.92c4.55,5.66,10.74,8.49,18.55,8.49,11.06,0,18.29-4.95,21.67-14.84h29.48c-2.99,11.72-8.92,21.02-17.77,27.92-8.85,6.9-19.92,10.35-33.19,10.35-10.42,0-19.66-2.31-27.73-6.93-8.07-4.62-14.38-11.13-18.94-19.53-4.56-8.4-6.83-18.19-6.83-29.38s2.28-20.99,6.83-29.38Z" class="cls-1"></path>
        <path d="M462.74,104.75c-8.33-4.62-14.87-11.16-19.62-19.62-4.75-8.46-7.13-18.22-7.13-29.29s2.44-20.82,7.32-29.29c4.88-8.46,11.55-15,20.01-19.62,8.46-4.62,17.9-6.93,28.31-6.93s19.85,2.31,28.31,6.93c8.46,4.62,15.13,11.16,20.01,19.62,4.88,8.46,7.32,18.23,7.32,29.29s-2.51,20.83-7.52,29.29c-5.01,8.46-11.78,15-20.31,19.62-8.53,4.62-18.06,6.93-28.6,6.93s-19.79-2.31-28.12-6.93ZM504.81,84.25c4.36-2.41,7.84-6.02,10.45-10.84,2.6-4.81,3.9-10.67,3.9-17.57,0-10.28-2.7-18.19-8.1-23.72-5.4-5.53-12.01-8.3-19.82-8.3s-14.35,2.77-19.62,8.3c-5.27,5.53-7.91,13.44-7.91,23.72s2.57,18.19,7.71,23.72c5.14,5.53,11.62,8.3,19.43,8.3,4.95,0,9.6-1.2,13.96-3.61Z" class="cls-1"></path>
        <path d="M604.58,5.08c5.66-3.25,12.14-4.88,19.43-4.88v28.7h-7.22c-8.59,0-15.07,2.02-19.43,6.05-4.36,4.04-6.54,11.07-6.54,21.09v53.89h-27.33V1.76h27.33v16.79c3.51-5.73,8.1-10.22,13.77-13.47Z" class="cls-1"></path>
        <path d="M729.64,12.4c7.94,8.14,11.91,19.49,11.91,34.07v63.46h-27.33v-59.75c0-8.59-2.15-15.2-6.44-19.82-4.3-4.62-10.15-6.93-17.57-6.93s-13.51,2.31-17.87,6.93c-4.36,4.62-6.54,11.23-6.54,19.82v59.75h-27.33V1.76h27.33v13.47c3.64-4.69,8.3-8.36,13.96-11.03,5.66-2.67,11.88-4,18.65-4,12.89,0,23.3,4.07,31.24,12.2Z" class="cls-1"></path>
        <path d="M863.38,64.04h-79.08c.65,7.81,3.38,13.93,8.2,18.35,4.81,4.43,10.74,6.64,17.77,6.64,10.15,0,17.38-4.36,21.67-13.08h29.48c-3.12,10.42-9.11,18.97-17.96,25.68-8.85,6.71-19.72,10.06-32.61,10.06-10.42,0-19.75-2.31-28.02-6.93-8.27-4.62-14.71-11.16-19.33-19.62-4.62-8.46-6.93-18.22-6.93-29.29s2.28-21.02,6.83-29.48c4.56-8.46,10.93-14.97,19.13-19.52,8.2-4.55,17.64-6.83,28.31-6.83s19.49,2.21,27.63,6.64c8.13,4.43,14.45,10.71,18.94,18.84,4.49,8.14,6.74,17.47,6.74,28.02,0,3.9-.26,7.42-.78,10.54ZM835.85,45.69c-.13-7.03-2.67-12.66-7.61-16.89-4.95-4.23-11-6.35-18.16-6.35-6.77,0-12.47,2.05-17.08,6.15-4.62,4.1-7.45,9.8-8.49,17.08h51.35Z" class="cls-1"></path>
        <path d="M921.27,5.08c5.66-3.25,12.14-4.88,19.43-4.88v28.7h-7.22c-8.59,0-15.07,2.02-19.43,6.05-4.36,4.04-6.54,11.07-6.54,21.09v53.89h-27.33V1.76h27.33v16.79c3.51-5.73,8.1-10.22,13.77-13.47Z" class="cls-1"></path>
      </g>
      <circle r="6.09" cy="73.23" cx="63.52" class="cls-1"></circle>
      <circle r="6.09" cy="73.23" cx="115.74" class="cls-1"></circle>
    </g>
  </g>
</svg>