<svg width="680" height="320" viewBox="0 0 680 320" role="img" xmlns="http://www.w3.org/2000/svg" aria-label="Harpera">
  <title>Harpera Logo</title>
  <desc>Logo Harpera phong cách tối giản cao cấp</desc>
  <defs>
    <linearGradient id="g1" x1="0%" y1="0%" x2="100%" y2="100%">
      <stop offset="0%" stop-color="#7B68EE"/>
      <stop offset="100%" stop-color="#20B2AA"/>
    </linearGradient>
    <linearGradient id="g2" x1="0%" y1="0%" x2="0%" y2="100%">
      <stop offset="0%" stop-color="#9D97F5"/>
      <stop offset="100%" stop-color="#3DD6C8"/>
    </linearGradient>
    <linearGradient id="gt" x1="0%" y1="0%" x2="100%" y2="0%">
      <stop offset="0%" stop-color="#5B52D0"/>
      <stop offset="100%" stop-color="#0E8F86"/>
    </linearGradient>
  </defs>

  <g transform="translate(340,30)">
    <path d="M-52 10 C-52 -28 52 -28 52 52" fill="none" stroke="url(#g1)" stroke-width="5.5" stroke-linecap="round"/>
    <line x1="-52" y1="10"  x2="-52" y2="180" stroke="url(#g1)" stroke-width="5.5" stroke-linecap="round"/>
    <line x1="-52" y1="180" x2=" 52" y2="180" stroke="url(#g1)" stroke-width="5.5" stroke-linecap="round"/>
    <line x1="-34" y1="0"   x2="-34" y2="180" stroke="url(#g2)" stroke-width="1.8" stroke-linecap="round" opacity="0.95"/>
    <line x1="-18" y1="-10" x2="-18" y2="180" stroke="url(#g2)" stroke-width="1.8" stroke-linecap="round" opacity="0.85"/>
    <line x1="  0" y1="-15" x2="  0" y2="180" stroke="url(#g2)" stroke-width="1.8" stroke-linecap="round" opacity="0.75"/>
    <line x1=" 16" y1="-10" x2=" 16" y2="180" stroke="url(#g2)" stroke-width="1.8" stroke-linecap="round" opacity="0.65"/>
    <line x1=" 32" y1="  4" x2=" 32" y2="180" stroke="url(#g2)" stroke-width="1.8" stroke-linecap="round" opacity="0.55"/>
    <line x1=" 46" y1=" 26" x2=" 46" y2="180" stroke="url(#g2)" stroke-width="1.8" stroke-linecap="round" opacity="0.42"/>
    <circle cx="-34" cy="0"   r="2.8" fill="#9D97F5" opacity="0.95"/>
    <circle cx="-18" cy="-10" r="2.8" fill="#9D97F5" opacity="0.85"/>
    <circle cx="  0" cy="-15" r="2.8" fill="#9D97F5" opacity="0.75"/>
    <circle cx=" 16" cy="-10" r="2.8" fill="#9D97F5" opacity="0.65"/>
    <circle cx=" 32" cy="  4" r="2.8" fill="#9D97F5" opacity="0.55"/>
    <circle cx=" 46" cy=" 26" r="2.8" fill="#9D97F5" opacity="0.42"/>
  </g>

  <text
    x="340" y="258"
    text-anchor="middle"
    font-family="'Palatino Linotype', Palatino, 'Book Antiqua', Georgia, serif"
    font-size="46"
    font-weight="400"
    letter-spacing="18"
    fill="url(#gt)">HARPERA</text>

  <line x1="200" y1="276" x2="480" y2="276" stroke="url(#g2)" stroke-width="0.6" opacity="0.5"/>
</svg>
